<?xml version="1.0" encoding="UTF-8" standalone="no"?>
<!-- Created with Inkscape (http://www.inkscape.org/) -->

<svg
   xmlns:dc="http://purl.org/dc/elements/1.1/"
   xmlns:cc="http://creativecommons.org/ns#"
   xmlns:rdf="http://www.w3.org/1999/02/22-rdf-syntax-ns#"
   xmlns:svg="http://www.w3.org/2000/svg"
   xmlns="http://www.w3.org/2000/svg"
   xmlns:sodipodi="http://sodipodi.sourceforge.net/DTD/sodipodi-0.dtd"
   xmlns:inkscape="http://www.inkscape.org/namespaces/inkscape"
   width="104.1674mm"
   height="57.971333mm"
   viewBox="0 0 104.1674 57.971333"
   version="1.1"
   id="svg8"
   inkscape:version="0.92.3 (2405546, 2018-03-11)"
   sodipodi:docname="404.svg">
  <defs
     id="defs2">
    <clipPath
       clipPathUnits="userSpaceOnUse"
       id="clipPath4604">
      <g
         id="g4610"
         transform="translate(-8.7501497,-14.3442)"
         style="fill:#000000;fill-opacity:1;stroke:#000000;stroke-opacity:1">
        <path
           inkscape:connector-curvature="0"
           id="path4606"
           d="m 131.44122,150.25074 c -1.75242,0.21905 -3.5558,-0.78184 -5.57515,-0.37797 -1.0391,0.20782 -2.67097,4.26228 -5.95312,5.57514 -4.57283,1.82913 -9.10509,-2.16406 -12.66221,1.51191 l 2.64584,8.31548 23.8125,-8.88244 z"
           style="fill:#000000;fill-opacity:1;stroke:#000000;stroke-width:0.26458332px;stroke-linecap:butt;stroke-linejoin:miter;stroke-opacity:1" />
        <path
           transform="scale(0.26458333)"
           inkscape:connector-curvature="0"
           id="path4608"
           d="m 415.7627,623.41199 c -0.094,-0.16071 -2.29144,-6.96185 -4.88309,-15.11363 l -4.71209,-14.82143 1.49051,-1.33083 c 4.68289,-4.1812 10.77767,-5.07753 22.48914,-3.3074 13.77696,2.08233 20.37904,1.42331 27.4007,-2.73512 2.85971,-1.69361 8.66989,-7.56316 12.67568,-12.80522 4.8716,-6.37507 4.66916,-6.22539 8.61645,-6.37086 2.27901,-0.084 4.58098,0.11568 7.54579,0.65451 2.34648,0.42644 5.55674,0.88261 7.1339,1.01371 l 2.86759,0.23835 4.00901,10.87689 c 2.20496,5.98228 3.97269,10.9132 3.92829,10.9576 -0.0444,0.0444 -19.76587,7.42506 -43.82549,16.40146 -24.05963,8.9764 -43.92942,16.39126 -44.15508,16.47746 -0.22567,0.0862 -0.48726,0.0252 -0.58131,-0.13549 z"
           style="fill:#000000;fill-opacity:1;stroke:#000000;stroke-width:1.78571427;stroke-linecap:round;stroke-linejoin:round;stroke-miterlimit:4;stroke-dasharray:none;stroke-opacity:1" />
      </g>
    </clipPath>
  </defs>
  <sodipodi:namedview
     id="base"
     pagecolor="#ffffff"
     bordercolor="#666666"
     borderopacity="1.0"
     inkscape:pageopacity="0.0"
     inkscape:pageshadow="2"
     inkscape:zoom="1.4"
     inkscape:cx="184.35416"
     inkscape:cy="141.02077"
     inkscape:document-units="mm"
     inkscape:current-layer="layer1"
     showgrid="false"
     inkscape:window-width="1366"
     inkscape:window-height="705"
     inkscape:window-x="-8"
     inkscape:window-y="-8"
     inkscape:window-maximized="1"
     fit-margin-top="0"
     fit-margin-left="0"
     fit-margin-right="0"
     fit-margin-bottom="0" />
  <metadata
     id="metadata5">
    <rdf:RDF>
      <cc:Work
         rdf:about="">
        <dc:format>image/svg+xml</dc:format>
        <dc:type
           rdf:resource="http://purl.org/dc/dcmitype/StillImage" />
        <dc:title />
      </cc:Work>
    </rdf:RDF>
  </metadata>
  <g
     inkscape:label="Layer 1"
     inkscape:groupmode="layer"
     id="layer1"
     style="display:inline"
     transform="translate(-19.133295,-117.2297)">
    <path
       style="fill:none;stroke:#000000;stroke-width:1.32291663;stroke-linecap:round;stroke-linejoin:miter;stroke-miterlimit:4;stroke-dasharray:none;stroke-opacity:1"
       d="m 103.56548,132.76934 c -6.272321,1.44746 -53.207669,18.34343 -59.342266,20.03274 0.223535,13.97985 -7.877752,16.83539 -18.898809,21.73363"
       id="path4530"
       inkscape:connector-curvature="0"
       sodipodi:nodetypes="cc" />
    <path
       style="fill:none;stroke:#000000;stroke-width:1.32291663;stroke-linecap:round;stroke-linejoin:miter;stroke-miterlimit:4;stroke-dasharray:none;stroke-opacity:1"
       d="m 81.642856,139.57291 c 4.873178,5.29965 12.730853,11.40794 17.575893,16.25298"
       id="path4532"
       inkscape:connector-curvature="0" />
    <path
       style="fill:none;stroke:#000000;stroke-width:1.32291663;stroke-linecap:round;stroke-linejoin:miter;stroke-miterlimit:4;stroke-dasharray:none;stroke-opacity:1"
       d="m 82.020832,120.8631 -0.377978,18.70981"
       id="path4534"
       inkscape:connector-curvature="0"
       sodipodi:nodetypes="cc" />
    <path
       style="fill:none;stroke:#000000;stroke-width:1.32291663;stroke-linecap:butt;stroke-linejoin:miter;stroke-miterlimit:4;stroke-dasharray:none;stroke-opacity:1"
       d="m 44.223214,152.80208 c -8.834843,-8.00107 -15.178279,-5.00553 -24.946429,-2.83483"
       id="path4538"
       inkscape:connector-curvature="0"
       sodipodi:nodetypes="cc" />
    <circle
       r="14.112789"
       cy="131.87166"
       cx="108.52641"
       id="circle4602"
       style="fill:#000000;fill-opacity:1;stroke:#000000;stroke-width:1.05833328;stroke-linecap:round;stroke-linejoin:round;stroke-miterlimit:4;stroke-dasharray:none;stroke-opacity:1" />
    <circle
       style="display:inline;fill:#f3ffff;fill-opacity:1;stroke:#ffffff;stroke-width:1.32299995;stroke-linecap:round;stroke-linejoin:round;stroke-miterlimit:4;stroke-dasharray:none;stroke-opacity:1"
       id="path4518"
       cx="108.52641"
       cy="131.87166"
       r="14.112789"
       clip-path="url(#clipPath4604)" />
  </g>
  <g
     inkscape:groupmode="layer"
     id="layer2"
     inkscape:label="Layer 2"
     style="display:inline"
     transform="translate(-19.133295,-117.2297)" />
</svg>
